<svg xmlns="http://www.w3.org/2000/svg" width="1180" height="880" viewBox="0 0 1180 880" font-family="Segoe UI, Arial, sans-serif">
<rect width="1180" height="880" fill="#fbfcfe"/>
<text x="28" y="40" font-size="24" font-weight="700" fill="#0f172a">🌱 Smart Greenhouse — Sơ đồ đấu nối (chính xác từng chân)</text>
<text x="28" y="64" font-size="13" fill="#475569">Arduino nối Raspberry Pi bằng CÁP USB. Mọi cảm biến/actuator gắn trên Arduino.</text>
<line x1="28" y1="82" x2="52" y2="82" stroke="#e23b3b" stroke-width="4" stroke-linecap="round"/>
<text x="58" y="86" font-size="12" fill="#334155">5V</text>
<line x1="112" y1="82" x2="136" y2="82" stroke="#222" stroke-width="4" stroke-linecap="round"/>
<text x="142" y="86" font-size="12" fill="#334155">GND</text>
<line x1="203" y1="82" x2="227" y2="82" stroke="#f4c430" stroke-width="4" stroke-linecap="round"/>
<text x="233" y="86" font-size="12" fill="#334155">tín hiệu</text>
<line x1="329" y1="82" x2="353" y2="82" stroke="#f08000" stroke-width="4" stroke-linecap="round"/>
<text x="359" y="86" font-size="12" fill="#334155">PWM servo</text>
<line x1="462" y1="82" x2="486" y2="82" stroke="#4aa3ff" stroke-width="4" stroke-linecap="round"/>
<text x="492" y="86" font-size="12" fill="#334155">I2C</text>
<rect x="452" y="78" width="666" height="152" rx="16" fill="#16a34a12" stroke="#16a34a" stroke-width="2.5" stroke-dasharray="10 6"/>
<rect x="452" y="56" width="319" height="22" rx="11" fill="#16a34a"/>
<text x="611.5" y="71" text-anchor="middle" font-size="11" font-weight="800" fill="#fff">🟢 LAYER 1 — LÕI AN TOÀN (DHT22 + LDR + LED)</text>
<rect x="958" y="332" width="200" height="120" rx="16" fill="#d9770612" stroke="#d97706" stroke-width="2.5" stroke-dasharray="10 6"/>
<rect x="958" y="310" width="242" height="22" rx="11" fill="#d97706"/>
<text x="1079.0" y="325" text-anchor="middle" font-size="11" font-weight="800" fill="#fff">🟡 LAYER 2 — TĂNG ĐIỂM (tuỳ chọn)</text>
<rect x="452" y="540" width="330" height="158" rx="16" fill="#d9770612" stroke="#d97706" stroke-width="2.5" stroke-dasharray="10 6"/>
<rect x="452" y="518" width="242" height="22" rx="11" fill="#d97706"/>
<text x="573.0" y="533" text-anchor="middle" font-size="11" font-weight="800" fill="#fff">🟡 LAYER 2 — TĂNG ĐIỂM (tuỳ chọn)</text>
<rect x="60" y="300" width="360" height="240" rx="14" fill="#1a8a93" stroke="#0f6e75" stroke-width="2"/>
<text x="240.0" y="420.0" text-anchor="middle" font-size="18" font-weight="800" fill="#ffffff" opacity="0.85">ARDUINO UNO</text>
<text x="240.0" y="440.0" text-anchor="middle" font-size="11" fill="#d6f5f8">R3</text>
<rect x="210" y="450" width="120" height="34" rx="3" fill="#222"/>
<rect x="30" y="330" width="34" height="44" rx="4" fill="#c8cdd4" stroke="#9aa1ab"/>
<rect x="34" y="338" width="26" height="28" rx="2" fill="#8a9099"/>
<rect x="281" y="305" width="18" height="18" rx="3" fill="#111"/>
<circle cx="290" cy="314" r="4.5" fill="#3a3a3a"/>
<text x="290" y="301" text-anchor="middle" font-size="11" font-weight="700" fill="#063">D7</text>
<rect x="321" y="305" width="18" height="18" rx="3" fill="#111"/>
<circle cx="330" cy="314" r="4.5" fill="#3a3a3a"/>
<text x="330" y="301" text-anchor="middle" font-size="11" font-weight="700" fill="#063">D9~</text>
<rect x="361" y="305" width="18" height="18" rx="3" fill="#111"/>
<circle cx="370" cy="314" r="4.5" fill="#3a3a3a"/>
<text x="370" y="301" text-anchor="middle" font-size="11" font-weight="700" fill="#063">D8</text>
<rect x="201" y="305" width="18" height="18" rx="3" fill="#111"/>
<circle cx="210" cy="314" r="4.5" fill="#3a3a3a"/>
<text x="210" y="301" text-anchor="middle" font-size="11" font-weight="700" fill="#063">D2</text>
<rect x="121" y="517" width="18" height="18" rx="3" fill="#111"/>
<circle cx="130" cy="526" r="4.5" fill="#3a3a3a"/>
<text x="130" y="548" text-anchor="middle" font-size="11" font-weight="700" fill="#063">5V</text>
<rect x="161" y="517" width="18" height="18" rx="3" fill="#111"/>
<circle cx="170" cy="526" r="4.5" fill="#3a3a3a"/>
<text x="170" y="548" text-anchor="middle" font-size="11" font-weight="700" fill="#063">GND</text>
<rect x="231" y="517" width="18" height="18" rx="3" fill="#111"/>
<circle cx="240" cy="526" r="4.5" fill="#3a3a3a"/>
<text x="240" y="548" text-anchor="middle" font-size="11" font-weight="700" fill="#063">A0</text>
<rect x="301" y="517" width="18" height="18" rx="3" fill="#111"/>
<circle cx="310" cy="526" r="4.5" fill="#3a3a3a"/>
<text x="310" y="548" text-anchor="middle" font-size="11" font-weight="700" fill="#063">A4</text>
<rect x="341" y="517" width="18" height="18" rx="3" fill="#111"/>
<circle cx="350" cy="526" r="4.5" fill="#3a3a3a"/>
<text x="350" y="548" text-anchor="middle" font-size="11" font-weight="700" fill="#063">A5</text>
<rect x="470" y="250" width="640" height="40" rx="6" fill="#f4f5f7" stroke="#d6dae0"/>
<line x1="480" y1="262" x2="1100" y2="262" stroke="#e23b3b" stroke-width="2"/>
<line x1="480" y1="278" x2="1100" y2="278" stroke="#222" stroke-width="2"/>
<text x="464" y="266" text-anchor="end" font-size="12" font-weight="700" fill="#e23b3b">+</text>
<text x="464" y="282" text-anchor="end" font-size="12" font-weight="700" fill="#222">−</text>
<circle cx="490" cy="262" r="2.6" fill="#c33"/>
<circle cx="490" cy="278" r="2.6" fill="#333"/>
<circle cx="516" cy="262" r="2.6" fill="#c33"/>
<circle cx="516" cy="278" r="2.6" fill="#333"/>
<circle cx="542" cy="262" r="2.6" fill="#c33"/>
<circle cx="542" cy="278" r="2.6" fill="#333"/>
<circle cx="568" cy="262" r="2.6" fill="#c33"/>
<circle cx="568" cy="278" r="2.6" fill="#333"/>
<circle cx="594" cy="262" r="2.6" fill="#c33"/>
<circle cx="594" cy="278" r="2.6" fill="#333"/>
<circle cx="620" cy="262" r="2.6" fill="#c33"/>
<circle cx="620" cy="278" r="2.6" fill="#333"/>
<circle cx="646" cy="262" r="2.6" fill="#c33"/>
<circle cx="646" cy="278" r="2.6" fill="#333"/>
<circle cx="672" cy="262" r="2.6" fill="#c33"/>
<circle cx="672" cy="278" r="2.6" fill="#333"/>
<circle cx="698" cy="262" r="2.6" fill="#c33"/>
<circle cx="698" cy="278" r="2.6" fill="#333"/>
<circle cx="724" cy="262" r="2.6" fill="#c33"/>
<circle cx="724" cy="278" r="2.6" fill="#333"/>
<circle cx="750" cy="262" r="2.6" fill="#c33"/>
<circle cx="750" cy="278" r="2.6" fill="#333"/>
<circle cx="776" cy="262" r="2.6" fill="#c33"/>
<circle cx="776" cy="278" r="2.6" fill="#333"/>
<circle cx="802" cy="262" r="2.6" fill="#c33"/>
<circle cx="802" cy="278" r="2.6" fill="#333"/>
<circle cx="828" cy="262" r="2.6" fill="#c33"/>
<circle cx="828" cy="278" r="2.6" fill="#333"/>
<circle cx="854" cy="262" r="2.6" fill="#c33"/>
<circle cx="854" cy="278" r="2.6" fill="#333"/>
<circle cx="880" cy="262" r="2.6" fill="#c33"/>
<circle cx="880" cy="278" r="2.6" fill="#333"/>
<circle cx="906" cy="262" r="2.6" fill="#c33"/>
<circle cx="906" cy="278" r="2.6" fill="#333"/>
<circle cx="932" cy="262" r="2.6" fill="#c33"/>
<circle cx="932" cy="278" r="2.6" fill="#333"/>
<circle cx="958" cy="262" r="2.6" fill="#c33"/>
<circle cx="958" cy="278" r="2.6" fill="#333"/>
<circle cx="984" cy="262" r="2.6" fill="#c33"/>
<circle cx="984" cy="278" r="2.6" fill="#333"/>
<circle cx="1010" cy="262" r="2.6" fill="#c33"/>
<circle cx="1010" cy="278" r="2.6" fill="#333"/>
<circle cx="1036" cy="262" r="2.6" fill="#c33"/>
<circle cx="1036" cy="278" r="2.6" fill="#333"/>
<circle cx="1062" cy="262" r="2.6" fill="#c33"/>
<circle cx="1062" cy="278" r="2.6" fill="#333"/>
<circle cx="1088" cy="262" r="2.6" fill="#c33"/>
<circle cx="1088" cy="278" r="2.6" fill="#333"/>
<path d="M130,526 Q130,262 490,262" stroke="#fbfcfe" stroke-width="7" fill="none" stroke-linecap="round"/>
<path d="M130,526 Q130,262 490,262" stroke="#e23b3b" stroke-width="4" fill="none" stroke-linecap="round"/>
<path d="M170,526 Q170,278 490,278" stroke="#fbfcfe" stroke-width="7" fill="none" stroke-linecap="round"/>
<path d="M170,526 Q170,278 490,278" stroke="#222" stroke-width="4" fill="none" stroke-linecap="round"/>
<rect x="470" y="90" width="90" height="70" rx="6" fill="#2f9fe0" stroke="#1f6fa0"/>
<g></g>
<circle cx="488" cy="102" r="1.6" fill="#1a5f86"/>
<circle cx="498" cy="102" r="1.6" fill="#1a5f86"/>
<circle cx="508" cy="102" r="1.6" fill="#1a5f86"/>
<circle cx="518" cy="102" r="1.6" fill="#1a5f86"/>
<circle cx="528" cy="102" r="1.6" fill="#1a5f86"/>
<circle cx="538" cy="102" r="1.6" fill="#1a5f86"/>
<circle cx="488" cy="110" r="1.6" fill="#1a5f86"/>
<circle cx="498" cy="110" r="1.6" fill="#1a5f86"/>
<circle cx="508" cy="110" r="1.6" fill="#1a5f86"/>
<circle cx="518" cy="110" r="1.6" fill="#1a5f86"/>
<circle cx="528" cy="110" r="1.6" fill="#1a5f86"/>
<circle cx="538" cy="110" r="1.6" fill="#1a5f86"/>
<circle cx="488" cy="118" r="1.6" fill="#1a5f86"/>
<circle cx="498" cy="118" r="1.6" fill="#1a5f86"/>
<circle cx="508" cy="118" r="1.6" fill="#1a5f86"/>
<circle cx="518" cy="118" r="1.6" fill="#1a5f86"/>
<circle cx="528" cy="118" r="1.6" fill="#1a5f86"/>
<circle cx="538" cy="118" r="1.6" fill="#1a5f86"/>
<circle cx="488" cy="126" r="1.6" fill="#1a5f86"/>
<circle cx="498" cy="126" r="1.6" fill="#1a5f86"/>
<circle cx="508" cy="126" r="1.6" fill="#1a5f86"/>
<circle cx="518" cy="126" r="1.6" fill="#1a5f86"/>
<circle cx="528" cy="126" r="1.6" fill="#1a5f86"/>
<circle cx="538" cy="126" r="1.6" fill="#1a5f86"/>
<circle cx="488" cy="134" r="1.6" fill="#1a5f86"/>
<circle cx="498" cy="134" r="1.6" fill="#1a5f86"/>
<circle cx="508" cy="134" r="1.6" fill="#1a5f86"/>
<circle cx="518" cy="134" r="1.6" fill="#1a5f86"/>
<circle cx="528" cy="134" r="1.6" fill="#1a5f86"/>
<circle cx="538" cy="134" r="1.6" fill="#1a5f86"/>
<text x="515" y="82" text-anchor="middle" font-size="13" font-weight="800" fill="#0f172a">DHT22</text>
<rect x="489" y="160" width="6" height="16" fill="#999"/>
<text x="492" y="190" text-anchor="middle" font-size="10" fill="#475569">+</text>
<rect x="512" y="160" width="6" height="16" fill="#999"/>
<text x="515" y="190" text-anchor="middle" font-size="10" fill="#475569">S</text>
<rect x="535" y="160" width="6" height="16" fill="#999"/>
<text x="538" y="190" text-anchor="middle" font-size="10" fill="#475569">−</text>
<path d="M492,176 Q492,240 542,262" stroke="#fbfcfe" stroke-width="7" fill="none" stroke-linecap="round"/>
<path d="M492,176 Q492,240 542,262" stroke="#e23b3b" stroke-width="4" fill="none" stroke-linecap="round"/>
<path d="M515,176 Q515,250 210,314" stroke="#fbfcfe" stroke-width="7" fill="none" stroke-linecap="round"/>
<path d="M515,176 Q515,250 210,314" stroke="#f4c430" stroke-width="4" fill="none" stroke-linecap="round"/>
<path d="M538,176 Q538,248 542,278" stroke="#fbfcfe" stroke-width="7" fill="none" stroke-linecap="round"/>
<path d="M538,176 Q538,248 542,278" stroke="#222" stroke-width="4" fill="none" stroke-linecap="round"/>
<rect x="640" y="80" width="200" height="130" rx="8" fill="#eef0f3" stroke="#cfd4da"/>
<circle cx="654" cy="96" r="2.2" fill="#b9bec6"/>
<circle cx="667" cy="96" r="2.2" fill="#b9bec6"/>
<circle cx="680" cy="96" r="2.2" fill="#b9bec6"/>
<circle cx="693" cy="96" r="2.2" fill="#b9bec6"/>
<circle cx="706" cy="96" r="2.2" fill="#b9bec6"/>
<circle cx="719" cy="96" r="2.2" fill="#b9bec6"/>
<circle cx="732" cy="96" r="2.2" fill="#b9bec6"/>
<circle cx="745" cy="96" r="2.2" fill="#b9bec6"/>
<circle cx="758" cy="96" r="2.2" fill="#b9bec6"/>
<circle cx="771" cy="96" r="2.2" fill="#b9bec6"/>
<circle cx="784" cy="96" r="2.2" fill="#b9bec6"/>
<circle cx="797" cy="96" r="2.2" fill="#b9bec6"/>
<circle cx="810" cy="96" r="2.2" fill="#b9bec6"/>
<circle cx="823" cy="96" r="2.2" fill="#b9bec6"/>
<circle cx="654" cy="109" r="2.2" fill="#b9bec6"/>
<circle cx="667" cy="109" r="2.2" fill="#b9bec6"/>
<circle cx="680" cy="109" r="2.2" fill="#b9bec6"/>
<circle cx="693" cy="109" r="2.2" fill="#b9bec6"/>
<circle cx="706" cy="109" r="2.2" fill="#b9bec6"/>
<circle cx="719" cy="109" r="2.2" fill="#b9bec6"/>
<circle cx="732" cy="109" r="2.2" fill="#b9bec6"/>
<circle cx="745" cy="109" r="2.2" fill="#b9bec6"/>
<circle cx="758" cy="109" r="2.2" fill="#b9bec6"/>
<circle cx="771" cy="109" r="2.2" fill="#b9bec6"/>
<circle cx="784" cy="109" r="2.2" fill="#b9bec6"/>
<circle cx="797" cy="109" r="2.2" fill="#b9bec6"/>
<circle cx="810" cy="109" r="2.2" fill="#b9bec6"/>
<circle cx="823" cy="109" r="2.2" fill="#b9bec6"/>
<circle cx="654" cy="122" r="2.2" fill="#b9bec6"/>
<circle cx="667" cy="122" r="2.2" fill="#b9bec6"/>
<circle cx="680" cy="122" r="2.2" fill="#b9bec6"/>
<circle cx="693" cy="122" r="2.2" fill="#b9bec6"/>
<circle cx="706" cy="122" r="2.2" fill="#b9bec6"/>
<circle cx="719" cy="122" r="2.2" fill="#b9bec6"/>
<circle cx="732" cy="122" r="2.2" fill="#b9bec6"/>
<circle cx="745" cy="122" r="2.2" fill="#b9bec6"/>
<circle cx="758" cy="122" r="2.2" fill="#b9bec6"/>
<circle cx="771" cy="122" r="2.2" fill="#b9bec6"/>
<circle cx="784" cy="122" r="2.2" fill="#b9bec6"/>
<circle cx="797" cy="122" r="2.2" fill="#b9bec6"/>
<circle cx="810" cy="122" r="2.2" fill="#b9bec6"/>
<circle cx="823" cy="122" r="2.2" fill="#b9bec6"/>
<circle cx="654" cy="135" r="2.2" fill="#b9bec6"/>
<circle cx="667" cy="135" r="2.2" fill="#b9bec6"/>
<circle cx="680" cy="135" r="2.2" fill="#b9bec6"/>
<circle cx="693" cy="135" r="2.2" fill="#b9bec6"/>
<circle cx="706" cy="135" r="2.2" fill="#b9bec6"/>
<circle cx="719" cy="135" r="2.2" fill="#b9bec6"/>
<circle cx="732" cy="135" r="2.2" fill="#b9bec6"/>
<circle cx="745" cy="135" r="2.2" fill="#b9bec6"/>
<circle cx="758" cy="135" r="2.2" fill="#b9bec6"/>
<circle cx="771" cy="135" r="2.2" fill="#b9bec6"/>
<circle cx="784" cy="135" r="2.2" fill="#b9bec6"/>
<circle cx="797" cy="135" r="2.2" fill="#b9bec6"/>
<circle cx="810" cy="135" r="2.2" fill="#b9bec6"/>
<circle cx="823" cy="135" r="2.2" fill="#b9bec6"/>
<circle cx="654" cy="148" r="2.2" fill="#b9bec6"/>
<circle cx="667" cy="148" r="2.2" fill="#b9bec6"/>
<circle cx="680" cy="148" r="2.2" fill="#b9bec6"/>
<circle cx="693" cy="148" r="2.2" fill="#b9bec6"/>
<circle cx="706" cy="148" r="2.2" fill="#b9bec6"/>
<circle cx="719" cy="148" r="2.2" fill="#b9bec6"/>
<circle cx="732" cy="148" r="2.2" fill="#b9bec6"/>
<circle cx="745" cy="148" r="2.2" fill="#b9bec6"/>
<circle cx="758" cy="148" r="2.2" fill="#b9bec6"/>
<circle cx="771" cy="148" r="2.2" fill="#b9bec6"/>
<circle cx="784" cy="148" r="2.2" fill="#b9bec6"/>
<circle cx="797" cy="148" r="2.2" fill="#b9bec6"/>
<circle cx="810" cy="148" r="2.2" fill="#b9bec6"/>
<circle cx="823" cy="148" r="2.2" fill="#b9bec6"/>
<circle cx="654" cy="161" r="2.2" fill="#b9bec6"/>
<circle cx="667" cy="161" r="2.2" fill="#b9bec6"/>
<circle cx="680" cy="161" r="2.2" fill="#b9bec6"/>
<circle cx="693" cy="161" r="2.2" fill="#b9bec6"/>
<circle cx="706" cy="161" r="2.2" fill="#b9bec6"/>
<circle cx="719" cy="161" r="2.2" fill="#b9bec6"/>
<circle cx="732" cy="161" r="2.2" fill="#b9bec6"/>
<circle cx="745" cy="161" r="2.2" fill="#b9bec6"/>
<circle cx="758" cy="161" r="2.2" fill="#b9bec6"/>
<circle cx="771" cy="161" r="2.2" fill="#b9bec6"/>
<circle cx="784" cy="161" r="2.2" fill="#b9bec6"/>
<circle cx="797" cy="161" r="2.2" fill="#b9bec6"/>
<circle cx="810" cy="161" r="2.2" fill="#b9bec6"/>
<circle cx="823" cy="161" r="2.2" fill="#b9bec6"/>
<circle cx="654" cy="174" r="2.2" fill="#b9bec6"/>
<circle cx="667" cy="174" r="2.2" fill="#b9bec6"/>
<circle cx="680" cy="174" r="2.2" fill="#b9bec6"/>
<circle cx="693" cy="174" r="2.2" fill="#b9bec6"/>
<circle cx="706" cy="174" r="2.2" fill="#b9bec6"/>
<circle cx="719" cy="174" r="2.2" fill="#b9bec6"/>
<circle cx="732" cy="174" r="2.2" fill="#b9bec6"/>
<circle cx="745" cy="174" r="2.2" fill="#b9bec6"/>
<circle cx="758" cy="174" r="2.2" fill="#b9bec6"/>
<circle cx="771" cy="174" r="2.2" fill="#b9bec6"/>
<circle cx="784" cy="174" r="2.2" fill="#b9bec6"/>
<circle cx="797" cy="174" r="2.2" fill="#b9bec6"/>
<circle cx="810" cy="174" r="2.2" fill="#b9bec6"/>
<circle cx="823" cy="174" r="2.2" fill="#b9bec6"/>
<circle cx="654" cy="187" r="2.2" fill="#b9bec6"/>
<circle cx="667" cy="187" r="2.2" fill="#b9bec6"/>
<circle cx="680" cy="187" r="2.2" fill="#b9bec6"/>
<circle cx="693" cy="187" r="2.2" fill="#b9bec6"/>
<circle cx="706" cy="187" r="2.2" fill="#b9bec6"/>
<circle cx="719" cy="187" r="2.2" fill="#b9bec6"/>
<circle cx="732" cy="187" r="2.2" fill="#b9bec6"/>
<circle cx="745" cy="187" r="2.2" fill="#b9bec6"/>
<circle cx="758" cy="187" r="2.2" fill="#b9bec6"/>
<circle cx="771" cy="187" r="2.2" fill="#b9bec6"/>
<circle cx="784" cy="187" r="2.2" fill="#b9bec6"/>
<circle cx="797" cy="187" r="2.2" fill="#b9bec6"/>
<circle cx="810" cy="187" r="2.2" fill="#b9bec6"/>
<circle cx="823" cy="187" r="2.2" fill="#b9bec6"/>
<text x="740.0" y="72" text-anchor="middle" font-size="13" font-weight="800" fill="#0f172a">LDR + R 10kΩ (chia áp → A0)</text>
<rect x="687" y="109" width="12" height="26" rx="6" fill="#caa46a" stroke="#8a6d3b"/>
<text x="679" y="122.0" text-anchor="end" font-size="9" fill="#475569">LDR</text>
<rect x="688" y="148" width="10" height="26" rx="3" fill="#d9c9a3" stroke="#b08d57"/>
<text x="705" y="161.0" font-size="9" fill="#475569">10k</text>
<path d="M693,109 Q693,230 750,262" stroke="#fbfcfe" stroke-width="7" fill="none" stroke-linecap="round"/>
<path d="M693,109 Q693,230 750,262" stroke="#e23b3b" stroke-width="4" fill="none" stroke-linecap="round"/>
<path d="M699,135 Q813,470 240,526" stroke="#fbfcfe" stroke-width="7" fill="none" stroke-linecap="round"/>
<path d="M699,135 Q813,470 240,526" stroke="#f4c430" stroke-width="4" fill="none" stroke-linecap="round"/>
<path d="M693,174 Q723,244 750,278" stroke="#fbfcfe" stroke-width="7" fill="none" stroke-linecap="round"/>
<path d="M693,174 Q723,244 750,278" stroke="#222" stroke-width="4" fill="none" stroke-linecap="round"/>
<rect x="900" y="80" width="200" height="130" rx="8" fill="#eef0f3" stroke="#cfd4da"/>
<circle cx="914" cy="96" r="2.2" fill="#b9bec6"/>
<circle cx="927" cy="96" r="2.2" fill="#b9bec6"/>
<circle cx="940" cy="96" r="2.2" fill="#b9bec6"/>
<circle cx="953" cy="96" r="2.2" fill="#b9bec6"/>
<circle cx="966" cy="96" r="2.2" fill="#b9bec6"/>
<circle cx="979" cy="96" r="2.2" fill="#b9bec6"/>
<circle cx="992" cy="96" r="2.2" fill="#b9bec6"/>
<circle cx="1005" cy="96" r="2.2" fill="#b9bec6"/>
<circle cx="1018" cy="96" r="2.2" fill="#b9bec6"/>
<circle cx="1031" cy="96" r="2.2" fill="#b9bec6"/>
<circle cx="1044" cy="96" r="2.2" fill="#b9bec6"/>
<circle cx="1057" cy="96" r="2.2" fill="#b9bec6"/>
<circle cx="1070" cy="96" r="2.2" fill="#b9bec6"/>
<circle cx="1083" cy="96" r="2.2" fill="#b9bec6"/>
<circle cx="914" cy="109" r="2.2" fill="#b9bec6"/>
<circle cx="927" cy="109" r="2.2" fill="#b9bec6"/>
<circle cx="940" cy="109" r="2.2" fill="#b9bec6"/>
<circle cx="953" cy="109" r="2.2" fill="#b9bec6"/>
<circle cx="966" cy="109" r="2.2" fill="#b9bec6"/>
<circle cx="979" cy="109" r="2.2" fill="#b9bec6"/>
<circle cx="992" cy="109" r="2.2" fill="#b9bec6"/>
<circle cx="1005" cy="109" r="2.2" fill="#b9bec6"/>
<circle cx="1018" cy="109" r="2.2" fill="#b9bec6"/>
<circle cx="1031" cy="109" r="2.2" fill="#b9bec6"/>
<circle cx="1044" cy="109" r="2.2" fill="#b9bec6"/>
<circle cx="1057" cy="109" r="2.2" fill="#b9bec6"/>
<circle cx="1070" cy="109" r="2.2" fill="#b9bec6"/>
<circle cx="1083" cy="109" r="2.2" fill="#b9bec6"/>
<circle cx="914" cy="122" r="2.2" fill="#b9bec6"/>
<circle cx="927" cy="122" r="2.2" fill="#b9bec6"/>
<circle cx="940" cy="122" r="2.2" fill="#b9bec6"/>
<circle cx="953" cy="122" r="2.2" fill="#b9bec6"/>
<circle cx="966" cy="122" r="2.2" fill="#b9bec6"/>
<circle cx="979" cy="122" r="2.2" fill="#b9bec6"/>
<circle cx="992" cy="122" r="2.2" fill="#b9bec6"/>
<circle cx="1005" cy="122" r="2.2" fill="#b9bec6"/>
<circle cx="1018" cy="122" r="2.2" fill="#b9bec6"/>
<circle cx="1031" cy="122" r="2.2" fill="#b9bec6"/>
<circle cx="1044" cy="122" r="2.2" fill="#b9bec6"/>
<circle cx="1057" cy="122" r="2.2" fill="#b9bec6"/>
<circle cx="1070" cy="122" r="2.2" fill="#b9bec6"/>
<circle cx="1083" cy="122" r="2.2" fill="#b9bec6"/>
<circle cx="914" cy="135" r="2.2" fill="#b9bec6"/>
<circle cx="927" cy="135" r="2.2" fill="#b9bec6"/>
<circle cx="940" cy="135" r="2.2" fill="#b9bec6"/>
<circle cx="953" cy="135" r="2.2" fill="#b9bec6"/>
<circle cx="966" cy="135" r="2.2" fill="#b9bec6"/>
<circle cx="979" cy="135" r="2.2" fill="#b9bec6"/>
<circle cx="992" cy="135" r="2.2" fill="#b9bec6"/>
<circle cx="1005" cy="135" r="2.2" fill="#b9bec6"/>
<circle cx="1018" cy="135" r="2.2" fill="#b9bec6"/>
<circle cx="1031" cy="135" r="2.2" fill="#b9bec6"/>
<circle cx="1044" cy="135" r="2.2" fill="#b9bec6"/>
<circle cx="1057" cy="135" r="2.2" fill="#b9bec6"/>
<circle cx="1070" cy="135" r="2.2" fill="#b9bec6"/>
<circle cx="1083" cy="135" r="2.2" fill="#b9bec6"/>
<circle cx="914" cy="148" r="2.2" fill="#b9bec6"/>
<circle cx="927" cy="148" r="2.2" fill="#b9bec6"/>
<circle cx="940" cy="148" r="2.2" fill="#b9bec6"/>
<circle cx="953" cy="148" r="2.2" fill="#b9bec6"/>
<circle cx="966" cy="148" r="2.2" fill="#b9bec6"/>
<circle cx="979" cy="148" r="2.2" fill="#b9bec6"/>
<circle cx="992" cy="148" r="2.2" fill="#b9bec6"/>
<circle cx="1005" cy="148" r="2.2" fill="#b9bec6"/>
<circle cx="1018" cy="148" r="2.2" fill="#b9bec6"/>
<circle cx="1031" cy="148" r="2.2" fill="#b9bec6"/>
<circle cx="1044" cy="148" r="2.2" fill="#b9bec6"/>
<circle cx="1057" cy="148" r="2.2" fill="#b9bec6"/>
<circle cx="1070" cy="148" r="2.2" fill="#b9bec6"/>
<circle cx="1083" cy="148" r="2.2" fill="#b9bec6"/>
<circle cx="914" cy="161" r="2.2" fill="#b9bec6"/>
<circle cx="927" cy="161" r="2.2" fill="#b9bec6"/>
<circle cx="940" cy="161" r="2.2" fill="#b9bec6"/>
<circle cx="953" cy="161" r="2.2" fill="#b9bec6"/>
<circle cx="966" cy="161" r="2.2" fill="#b9bec6"/>
<circle cx="979" cy="161" r="2.2" fill="#b9bec6"/>
<circle cx="992" cy="161" r="2.2" fill="#b9bec6"/>
<circle cx="1005" cy="161" r="2.2" fill="#b9bec6"/>
<circle cx="1018" cy="161" r="2.2" fill="#b9bec6"/>
<circle cx="1031" cy="161" r="2.2" fill="#b9bec6"/>
<circle cx="1044" cy="161" r="2.2" fill="#b9bec6"/>
<circle cx="1057" cy="161" r="2.2" fill="#b9bec6"/>
<circle cx="1070" cy="161" r="2.2" fill="#b9bec6"/>
<circle cx="1083" cy="161" r="2.2" fill="#b9bec6"/>
<circle cx="914" cy="174" r="2.2" fill="#b9bec6"/>
<circle cx="927" cy="174" r="2.2" fill="#b9bec6"/>
<circle cx="940" cy="174" r="2.2" fill="#b9bec6"/>
<circle cx="953" cy="174" r="2.2" fill="#b9bec6"/>
<circle cx="966" cy="174" r="2.2" fill="#b9bec6"/>
<circle cx="979" cy="174" r="2.2" fill="#b9bec6"/>
<circle cx="992" cy="174" r="2.2" fill="#b9bec6"/>
<circle cx="1005" cy="174" r="2.2" fill="#b9bec6"/>
<circle cx="1018" cy="174" r="2.2" fill="#b9bec6"/>
<circle cx="1031" cy="174" r="2.2" fill="#b9bec6"/>
<circle cx="1044" cy="174" r="2.2" fill="#b9bec6"/>
<circle cx="1057" cy="174" r="2.2" fill="#b9bec6"/>
<circle cx="1070" cy="174" r="2.2" fill="#b9bec6"/>
<circle cx="1083" cy="174" r="2.2" fill="#b9bec6"/>
<circle cx="914" cy="187" r="2.2" fill="#b9bec6"/>
<circle cx="927" cy="187" r="2.2" fill="#b9bec6"/>
<circle cx="940" cy="187" r="2.2" fill="#b9bec6"/>
<circle cx="953" cy="187" r="2.2" fill="#b9bec6"/>
<circle cx="966" cy="187" r="2.2" fill="#b9bec6"/>
<circle cx="979" cy="187" r="2.2" fill="#b9bec6"/>
<circle cx="992" cy="187" r="2.2" fill="#b9bec6"/>
<circle cx="1005" cy="187" r="2.2" fill="#b9bec6"/>
<circle cx="1018" cy="187" r="2.2" fill="#b9bec6"/>
<circle cx="1031" cy="187" r="2.2" fill="#b9bec6"/>
<circle cx="1044" cy="187" r="2.2" fill="#b9bec6"/>
<circle cx="1057" cy="187" r="2.2" fill="#b9bec6"/>
<circle cx="1070" cy="187" r="2.2" fill="#b9bec6"/>
<circle cx="1083" cy="187" r="2.2" fill="#b9bec6"/>
<text x="1000.0" y="72" text-anchor="middle" font-size="13" font-weight="800" fill="#0f172a">LED + R 220Ω (→ D7)</text>
<circle cx="1005" cy="122.0" r="9" fill="#ef3b3b" stroke="#a01818"/>
<text x="1019" y="122.0" font-size="9" fill="#475569">LED</text>
<rect x="1000" y="135" width="10" height="26" rx="3" fill="#e6d2b5" stroke="#caa46a"/>
<text x="1017" y="148.0" font-size="9" fill="#475569">220</text>
<path d="M1005,161 Q885,250 290,314" stroke="#fbfcfe" stroke-width="7" fill="none" stroke-linecap="round"/>
<path d="M1005,161 Q885,250 290,314" stroke="#f4c430" stroke-width="4" fill="none" stroke-linecap="round"/>
<path d="M1005,135 Q1055,242 1010,278" stroke="#fbfcfe" stroke-width="7" fill="none" stroke-linecap="round"/>
<path d="M1005,135 Q1055,242 1010,278" stroke="#222" stroke-width="4" fill="none" stroke-linecap="round"/>
<rect x="980" y="360" width="120" height="70" rx="8" fill="#2b6fc2" stroke="#1c4f90"/>
<rect x="1020" y="338" width="40" height="26" rx="4" fill="#5b9bd5"/>
<rect x="1075" y="380" width="44" height="10" rx="3" fill="#cdd6e0"/>
<text x="1040" y="402" text-anchor="middle" font-size="13" font-weight="800" fill="#fff">Servo SG90</text>
<text x="1040" y="418" text-anchor="middle" font-size="10" fill="#dbeafe">cửa thông gió</text>
<text x="972" y="381" text-anchor="end" font-size="9" fill="#475569">S</text>
<text x="972" y="397" text-anchor="end" font-size="9" fill="#475569">+</text>
<text x="972" y="413" text-anchor="end" font-size="9" fill="#475569">−</text>
<path d="M980,378 Q700,378 330,314" stroke="#fbfcfe" stroke-width="7" fill="none" stroke-linecap="round"/>
<path d="M980,378 Q700,378 330,314" stroke="#f08000" stroke-width="4" fill="none" stroke-linecap="round"/>
<path d="M980,394 Q940,320 1062,262" stroke="#fbfcfe" stroke-width="7" fill="none" stroke-linecap="round"/>
<path d="M980,394 Q940,320 1062,262" stroke="#e23b3b" stroke-width="4" fill="none" stroke-linecap="round"/>
<path d="M980,410 Q920,330 1062,278" stroke="#fbfcfe" stroke-width="7" fill="none" stroke-linecap="round"/>
<path d="M980,410 Q920,330 1062,278" stroke="#222" stroke-width="4" fill="none" stroke-linecap="round"/>
<rect x="470" y="560" width="300" height="120" rx="8" fill="#0f3d2e" stroke="#0a2a20"/>
<rect x="490" y="584" width="260" height="72" rx="4" fill="#8fd14f"/>
<rect x="466" y="572" width="44" height="40" rx="3" fill="#111"/>
<rect x="472" y="612" width="4" height="14" fill="#999"/>
<text x="474" y="640" text-anchor="middle" font-size="8" fill="#cbd5e1">G</text>
<rect x="482" y="612" width="4" height="14" fill="#999"/>
<text x="484" y="640" text-anchor="middle" font-size="8" fill="#cbd5e1">V</text>
<rect x="492" y="612" width="4" height="14" fill="#999"/>
<text x="494" y="640" text-anchor="middle" font-size="8" fill="#cbd5e1">SDA</text>
<rect x="502" y="612" width="4" height="14" fill="#999"/>
<text x="504" y="640" text-anchor="middle" font-size="8" fill="#cbd5e1">SCL</text>
<text x="620" y="674" text-anchor="middle" font-size="13" font-weight="800" fill="#d1fae5">LCD1602 + I2C  (0x27)</text>
<path d="M484,632 Q444,420 594,262" stroke="#fbfcfe" stroke-width="7" fill="none" stroke-linecap="round"/>
<path d="M484,632 Q444,420 594,262" stroke="#e23b3b" stroke-width="4" fill="none" stroke-linecap="round"/>
<path d="M474,632 Q414,420 594,278" stroke="#fbfcfe" stroke-width="7" fill="none" stroke-linecap="round"/>
<path d="M474,632 Q414,420 594,278" stroke="#222" stroke-width="4" fill="none" stroke-linecap="round"/>
<path d="M494,632 Q310,560 310,526" stroke="#fbfcfe" stroke-width="7" fill="none" stroke-linecap="round"/>
<path d="M494,632 Q310,560 310,526" stroke="#4aa3ff" stroke-width="4" fill="none" stroke-linecap="round"/>
<path d="M504,632 Q390,560 350,526" stroke="#fbfcfe" stroke-width="7" fill="none" stroke-linecap="round"/>
<path d="M504,632 Q390,560 350,526" stroke="#4aa3ff" stroke-width="4" fill="none" stroke-linecap="round"/>
<circle cx="850" cy="500" r="30" fill="#1f2937" stroke="#0b1220" stroke-width="2"/>
<circle cx="850" cy="500" r="6" fill="#0b1220"/>
<text x="850" y="548" text-anchor="middle" font-size="13" font-weight="800" fill="#0f172a">Buzzer 🔊</text>
<text x="850" y="564" text-anchor="middle" font-size="10" fill="#475569">còi báo cháy → D8</text>
<text x="836" y="534" text-anchor="middle" font-size="10" fill="#b91c1c">+</text>
<text x="864" y="534" text-anchor="middle" font-size="10" fill="#111">−</text>
<path d="M836,528 Q716,250 370,314" stroke="#fbfcfe" stroke-width="7" fill="none" stroke-linecap="round"/>
<path d="M836,528 Q716,250 370,314" stroke="#f4c430" stroke-width="4" fill="none" stroke-linecap="round"/>
<path d="M864,528 Q894,244 958,278" stroke="#fbfcfe" stroke-width="7" fill="none" stroke-linecap="round"/>
<path d="M864,528 Q894,244 958,278" stroke="#222" stroke-width="4" fill="none" stroke-linecap="round"/>
<rect x="808" y="574" width="320" height="118" rx="16" fill="#d9770612" stroke="#d97706" stroke-width="2.5" stroke-dasharray="10 6"/>
<rect x="820" y="600" width="240" height="60" rx="8" fill="#111827" stroke="#374151"/>
<rect x="838" y="612" width="36" height="36" rx="3" fill="#7f1d1d"/>
<text x="856" y="638" text-anchor="middle" font-size="22" font-weight="800" fill="#fca5a5">2</text>
<rect x="892" y="612" width="36" height="36" rx="3" fill="#7f1d1d"/>
<text x="910" y="638" text-anchor="middle" font-size="22" font-weight="800" fill="#fca5a5">7</text>
<rect x="946" y="612" width="36" height="36" rx="3" fill="#7f1d1d"/>
<text x="964" y="638" text-anchor="middle" font-size="22" font-weight="800" fill="#fca5a5">5</text>
<rect x="1000" y="612" width="36" height="36" rx="3" fill="#7f1d1d"/>
<text x="1018" y="638" text-anchor="middle" font-size="22" font-weight="800" fill="#fca5a5">C</text>
<text x="940" y="678" text-anchor="middle" font-size="12" font-weight="800" fill="#9a3412">LED 4-digit → RASPBERRY PI (74HC595: DS24/RCLK23/SRCLK18, 3.3V)</text>
<rect x="30" y="564" width="380" height="44" rx="10" fill="#fff7ed" stroke="#f08000" stroke-width="2"/>
<text x="46" y="590" font-size="13" font-weight="800" fill="#9a3412">⎘ CÁP USB → Raspberry Pi (/dev/ttyACM0)</text>
<text x="46" y="604" font-size="11" fill="#9a5a36">Cắm USB Arduino vào cổng USB của Pi. KHÔNG nối TX/RX.</text>
<rect x="28" y="780" width="1124" height="92" rx="12" fill="#f8fafc" stroke="#cbd5e1"/>
<rect x="28" y="780" width="10" height="92" rx="5" fill="#16a34a"/>
<text x="52" y="804" font-size="13.5" font-weight="800" fill="#166534">🟢 LAYER 1 (lắp trước, ~8đ):</text>
<text x="270" y="804" font-size="12.5" fill="#334155">DHT22 (D2) + LDR (A0) + LED (D7) + cáp USB → Pi → Flask. Ít dây, khó hỏng.</text>
<text x="52" y="828" font-size="13.5" font-weight="800" fill="#b45309">🟡 LAYER 2 (tăng điểm):</text>
<text x="270" y="828" font-size="12.5" fill="#334155">Servo cửa thông gió (D9) + LCD1602 I2C (A4/A5). Mỗi phần độc lập, tháo được.</text>
<text x="52" y="852" font-size="13.5" font-weight="800" fill="#991b1b">🔴 LAYER 3 (ăn điểm):</text>
<text x="270" y="852" font-size="12.5" fill="#334155">Buzzer báo cháy (D8, temp≥50°C) + LED 4-digit trên RASPBERRY PI (74HC595, GPIO 3.3V).</text>
</svg>